<?xml version="1.0" encoding="UTF-8"?>
<svg id="Layer_2" data-name="Layer 2" xmlns="http://www.w3.org/2000/svg" width="16.01" height="23.71" viewBox="0 0 16.01 23.71">
  <defs>
    <style>
      .cls-1 {
        stroke: #fff;
        stroke-miterlimit: 10;
        stroke-width: .45px;
      }
    </style>
  </defs>
  <g id="Layer_1-2" data-name="Layer 1">
    <path class="cls-1" d="m4.7,23.49c-1.32,0-2.4-.45-3.23-1.36-.83-.91-1.25-2-1.25-3.28,0-4,1.47-7.72,4.42-11.15-.15-.15-.23-.43-.23-.85,0-.45.15-1.05.45-1.78.3-.74.68-1.47,1.13-2.21.45-.74.92-1.36,1.41-1.87.49-.51.94-.76,1.36-.76,1.06,0,2.15.41,3.28,1.22,1.13.81,2.02,1.86,2.66,3.14.34.68.6,1.47.79,2.38.19.91.28,1.92.28,3.06,0,1.7-.28,3.35-.85,4.95-.57,1.6-1.36,3.05-2.38,4.33-1.02,1.28-2.2,2.3-3.54,3.06-1.34.75-2.78,1.13-4.33,1.13Zm2.26-4.64c1.55,0,2.73-.39,3.54-1.16.81-.77,1.22-1.75,1.22-2.92,0-1.25-.39-2.49-1.16-3.74-.77-1.25-2.05-2.06-3.82-2.43-2,2.11-3,4.47-3,7.08,0,1.02.29,1.8.88,2.35.58.55,1.37.82,2.35.82Z"/>
  </g>
</svg>