<?xml version="1.0" encoding="UTF-8"?>
<svg id="Layer_2" data-name="Layer 2" xmlns="http://www.w3.org/2000/svg" width="37.16" height="74.17" viewBox="0 0 37.16 74.17">
  <defs>
    <style>
      .cls-1 {
        stroke: #fff;
        stroke-miterlimit: 10;
        stroke-width: .45px;
      }
    </style>
  </defs>
  <g id="Layer_1-2" data-name="Layer 1">
    <path class="cls-1" d="m.41,73.94c-.12-2.88-.18-6.93-.18-12.14,0-4.57.05-8.61.15-12.14.1-3.52.32-6.71.66-9.55.34-2.84.85-5.53,1.53-8.05.8-3,2.1-6.09,3.91-9.25,1.28-2.2,2.66-4.1,4.15-5.68,1.48-1.58,3.19-3.01,5.14-4.3,1.94-1.28,4.18-2.54,6.7-3.79.96-2.6,1.93-4.73,2.91-6.37.98-1.64,2.13-2.46,3.45-2.46.44,0,1.1.09,1.98.27.88.18,1.79.44,2.73.78.94.34,1.74.75,2.4,1.23.66.48.99,1.02.99,1.62s-.19,1.43-.57,2.49c-.38,1.06-.86,2.16-1.44,3.3-.58,1.14-1.21,2.15-1.89,3.03-.48.64-1.02,1.13-1.62,1.47-.6.34-1.26.59-1.98.75-5.37,1-9.8,2.32-13.31,3.97-3.51,1.64-6.02,3.65-7.54,6.01-1.32,2.08-2.31,4.92-2.97,8.5-.66,3.58-1.13,7.71-1.41,12.38-.28,4.67-.56,9.68-.84,15.05-.16,2.8-.31,5.28-.45,7.42-.14,2.14-.27,3.96-.39,5.44H.41Z"/>
  </g>
</svg>